<mxfile host="app.diagrams.net" agent="Mozilla/5.0 (Windows NT 10.0; Win64; x64) AppleWebKit/537.36 (KHTML, like Gecko) Chrome/127.0.0.0 Safari/537.36 OPR/113.0.0.0" version="24.7.16">
  <diagram name="Page-1" id="e7e014a7-5840-1c2e-5031-d8a46d1fe8dd">
    <mxGraphModel dx="1401" dy="764" grid="1" gridSize="10" guides="1" tooltips="1" connect="1" arrows="1" fold="1" page="1" pageScale="1" pageWidth="1169" pageHeight="826" background="none" math="0" shadow="0">
      <root>
        <mxCell id="0" />
        <mxCell id="1" parent="0" />
        <mxCell id="2" value="User" style="swimlane;whiteSpace=wrap" parent="1" vertex="1">
          <mxGeometry x="164.5" y="128" width="280" height="570" as="geometry" />
        </mxCell>
        <mxCell id="AtlraDgYz-lB9DFWPTUZ-43" value="" style="ellipse;html=1;shape=startState;fillColor=#000000;strokeColor=#ff0000;" vertex="1" parent="2">
          <mxGeometry x="125" y="42" width="30" height="30" as="geometry" />
        </mxCell>
        <mxCell id="AtlraDgYz-lB9DFWPTUZ-44" value="" style="edgeStyle=orthogonalEdgeStyle;html=1;verticalAlign=bottom;endArrow=open;endSize=8;strokeColor=#ff0000;rounded=0;entryX=0.5;entryY=0;entryDx=0;entryDy=0;" edge="1" source="AtlraDgYz-lB9DFWPTUZ-43" parent="2" target="AtlraDgYz-lB9DFWPTUZ-62">
          <mxGeometry relative="1" as="geometry">
            <mxPoint x="140.5" y="82" as="targetPoint" />
          </mxGeometry>
        </mxCell>
        <mxCell id="AtlraDgYz-lB9DFWPTUZ-57" value="Idle" style="rhombus;whiteSpace=wrap;html=1;fontColor=#000000;fillColor=#ffffc0;strokeColor=#ff0000;" vertex="1" parent="2">
          <mxGeometry x="85" y="202" width="110" height="108" as="geometry" />
        </mxCell>
        <mxCell id="AtlraDgYz-lB9DFWPTUZ-62" value="Click On Product&lt;div&gt;Display&lt;/div&gt;" style="rounded=1;whiteSpace=wrap;html=1;arcSize=40;fontColor=#000000;fillColor=#ffffc0;strokeColor=#ff0000;" vertex="1" parent="2">
          <mxGeometry x="80" y="112" width="120" height="40" as="geometry" />
        </mxCell>
        <mxCell id="AtlraDgYz-lB9DFWPTUZ-63" value="" style="edgeStyle=orthogonalEdgeStyle;html=1;verticalAlign=bottom;endArrow=open;endSize=8;strokeColor=#ff0000;rounded=0;entryX=0.5;entryY=0;entryDx=0;entryDy=0;" edge="1" source="AtlraDgYz-lB9DFWPTUZ-62" parent="2" target="AtlraDgYz-lB9DFWPTUZ-57">
          <mxGeometry relative="1" as="geometry">
            <mxPoint x="215.5" y="222" as="targetPoint" />
          </mxGeometry>
        </mxCell>
        <mxCell id="AtlraDgYz-lB9DFWPTUZ-80" value="Update Product&lt;div&gt;Display&lt;/div&gt;" style="rounded=1;whiteSpace=wrap;html=1;arcSize=40;fontColor=#000000;fillColor=#ffffc0;strokeColor=#ff0000;" vertex="1" parent="2">
          <mxGeometry x="135.5" y="342" width="120" height="40" as="geometry" />
        </mxCell>
        <mxCell id="AtlraDgYz-lB9DFWPTUZ-83" value="" style="ellipse;html=1;shape=endState;fillColor=#000000;strokeColor=#ff0000;" vertex="1" parent="2">
          <mxGeometry x="180.5" y="432" width="30" height="30" as="geometry" />
        </mxCell>
        <mxCell id="3" value="Sort" style="swimlane;whiteSpace=wrap" parent="1" vertex="1">
          <mxGeometry x="445" y="128" width="280" height="570" as="geometry" />
        </mxCell>
        <mxCell id="AtlraDgYz-lB9DFWPTUZ-64" value="Sort Product List" style="rounded=1;whiteSpace=wrap;html=1;arcSize=40;fontColor=#000000;fillColor=#ffffc0;strokeColor=#ff0000;" vertex="1" parent="3">
          <mxGeometry x="80.5" y="212" width="120" height="40" as="geometry" />
        </mxCell>
        <mxCell id="AtlraDgYz-lB9DFWPTUZ-41" value="Search" style="swimlane;whiteSpace=wrap" vertex="1" parent="1">
          <mxGeometry x="724.5" y="128" width="280" height="570" as="geometry" />
        </mxCell>
        <mxCell id="AtlraDgYz-lB9DFWPTUZ-69" value="Search Product List" style="rounded=1;whiteSpace=wrap;html=1;arcSize=40;fontColor=#000000;fillColor=#ffffc0;strokeColor=#ff0000;" vertex="1" parent="AtlraDgYz-lB9DFWPTUZ-41">
          <mxGeometry x="75.5" y="422" width="120" height="40" as="geometry" />
        </mxCell>
        <mxCell id="AtlraDgYz-lB9DFWPTUZ-70" value="" style="edgeStyle=orthogonalEdgeStyle;html=1;verticalAlign=bottom;endArrow=open;endSize=8;strokeColor=#ff0000;rounded=0;" edge="1" source="AtlraDgYz-lB9DFWPTUZ-69" parent="AtlraDgYz-lB9DFWPTUZ-41">
          <mxGeometry relative="1" as="geometry">
            <mxPoint x="135.5" y="382" as="targetPoint" />
          </mxGeometry>
        </mxCell>
        <mxCell id="AtlraDgYz-lB9DFWPTUZ-74" value="Found?" style="rhombus;whiteSpace=wrap;html=1;fontColor=#000000;fillColor=#ffffc0;strokeColor=#ff0000;" vertex="1" parent="AtlraDgYz-lB9DFWPTUZ-41">
          <mxGeometry x="95.5" y="342" width="80" height="40" as="geometry" />
        </mxCell>
        <mxCell id="AtlraDgYz-lB9DFWPTUZ-75" value="no" style="edgeStyle=orthogonalEdgeStyle;html=1;align=left;verticalAlign=bottom;endArrow=open;endSize=8;strokeColor=#ff0000;rounded=0;" edge="1" source="AtlraDgYz-lB9DFWPTUZ-74" parent="AtlraDgYz-lB9DFWPTUZ-41">
          <mxGeometry x="-1" relative="1" as="geometry">
            <mxPoint x="215.5" y="292" as="targetPoint" />
          </mxGeometry>
        </mxCell>
        <mxCell id="AtlraDgYz-lB9DFWPTUZ-77" value="Notify User" style="rounded=1;whiteSpace=wrap;html=1;arcSize=40;fontColor=#000000;fillColor=#ffffc0;strokeColor=#ff0000;" vertex="1" parent="AtlraDgYz-lB9DFWPTUZ-41">
          <mxGeometry x="155.5" y="252" width="120" height="40" as="geometry" />
        </mxCell>
        <mxCell id="AtlraDgYz-lB9DFWPTUZ-78" value="" style="edgeStyle=orthogonalEdgeStyle;html=1;verticalAlign=bottom;endArrow=open;endSize=8;strokeColor=#ff0000;rounded=0;" edge="1" source="AtlraDgYz-lB9DFWPTUZ-77" parent="AtlraDgYz-lB9DFWPTUZ-41">
          <mxGeometry relative="1" as="geometry">
            <mxPoint x="65.5" y="362" as="targetPoint" />
            <Array as="points">
              <mxPoint x="66" y="272" />
            </Array>
          </mxGeometry>
        </mxCell>
        <mxCell id="AtlraDgYz-lB9DFWPTUZ-65" value="" style="edgeStyle=orthogonalEdgeStyle;html=1;verticalAlign=bottom;endArrow=open;endSize=8;strokeColor=#ff0000;rounded=0;exitX=0.5;exitY=1;exitDx=0;exitDy=0;" edge="1" source="AtlraDgYz-lB9DFWPTUZ-64" parent="1">
          <mxGeometry relative="1" as="geometry">
            <mxPoint x="585" y="490" as="targetPoint" />
            <mxPoint x="550" y="440" as="sourcePoint" />
            <Array as="points">
              <mxPoint x="585" y="410" />
            </Array>
          </mxGeometry>
        </mxCell>
        <mxCell id="AtlraDgYz-lB9DFWPTUZ-58" value="Sort Changed" style="edgeStyle=orthogonalEdgeStyle;html=1;align=left;verticalAlign=bottom;endArrow=open;endSize=8;strokeColor=#ff0000;rounded=0;entryX=0;entryY=0.5;entryDx=0;entryDy=0;" edge="1" source="AtlraDgYz-lB9DFWPTUZ-57" parent="1" target="AtlraDgYz-lB9DFWPTUZ-64">
          <mxGeometry x="-1" relative="1" as="geometry">
            <mxPoint x="500" y="304" as="targetPoint" />
            <Array as="points">
              <mxPoint x="480" y="384" />
              <mxPoint x="480" y="360" />
            </Array>
          </mxGeometry>
        </mxCell>
        <mxCell id="AtlraDgYz-lB9DFWPTUZ-81" value="" style="edgeStyle=orthogonalEdgeStyle;html=1;verticalAlign=bottom;endArrow=open;endSize=8;strokeColor=#ff0000;rounded=0;" edge="1" source="AtlraDgYz-lB9DFWPTUZ-80" parent="1">
          <mxGeometry relative="1" as="geometry">
            <mxPoint x="360" y="560" as="targetPoint" />
          </mxGeometry>
        </mxCell>
        <mxCell id="AtlraDgYz-lB9DFWPTUZ-59" value="Search Changed" style="edgeStyle=orthogonalEdgeStyle;html=1;align=left;verticalAlign=top;endArrow=open;endSize=8;strokeColor=#ff0000;rounded=0;entryX=0.5;entryY=1;entryDx=0;entryDy=0;" edge="1" source="AtlraDgYz-lB9DFWPTUZ-57" parent="1" target="AtlraDgYz-lB9DFWPTUZ-69">
          <mxGeometry x="-0.8411" relative="1" as="geometry">
            <mxPoint x="800" y="570" as="targetPoint" />
            <Array as="points">
              <mxPoint x="190" y="384" />
              <mxPoint x="190" y="660" />
              <mxPoint x="860" y="660" />
            </Array>
            <mxPoint as="offset" />
          </mxGeometry>
        </mxCell>
        <mxCell id="AtlraDgYz-lB9DFWPTUZ-76" value="yes" style="edgeStyle=orthogonalEdgeStyle;html=1;align=left;verticalAlign=top;endArrow=open;endSize=8;strokeColor=#ff0000;rounded=0;entryX=1;entryY=0.5;entryDx=0;entryDy=0;" edge="1" source="AtlraDgYz-lB9DFWPTUZ-74" parent="1" target="AtlraDgYz-lB9DFWPTUZ-80">
          <mxGeometry x="-0.8749" y="20" relative="1" as="geometry">
            <mxPoint x="680" y="430" as="targetPoint" />
            <Array as="points">
              <mxPoint x="510" y="490" />
              <mxPoint x="510" y="490" />
            </Array>
            <mxPoint as="offset" />
          </mxGeometry>
        </mxCell>
      </root>
    </mxGraphModel>
  </diagram>
</mxfile>
